# xmcd
#
# Track frame offsets:
#       150
#       521
#       17110
#       33454
#       36922
#       52967
#       70621
#       82437
#       104104
#       105223
#       116138
#       136090
#       160766
#       163847
#       187398
#
# Disc length: 2704 seconds
#
# Revision: 0
# Processed by: cddbd v1.5.1PL0 Copyright (c) Steve Scherf et al.
# Submitted via: WaveLab 4.01
#
DISCID=ca0a8e0f
DTITLE=Verschiedene - Fans, wir danken Euch
DYEAR=1900
DGENRE=
TTITLE0=Bin i scho auf Sendung
TTITLE1=FC Tirol Fansong
TTITLE2=22 Männerbeine
TTITLE3=Im Stadion
TTITLE4=In der Nacht
TTITLE5=Vamos a la Playa
TTITLE6=Hey du mein Heimatland
TTITLE7=Schüzenjäger Medley
TTITLE8=Wieder im Stadion
TTITLE9=Wir feiern heut a Party
TTITLE10=Serra Madre
TTITLE11=Unser unschlagbares Team
TTITLE12=Bin i scho auf Sendung? (Hoppala)
TTITLE13=Nur ein Spiel
TTITLE14=Fc Tirol Fansong
EXTD=
EXTT0=
EXTT1=
EXTT2=
EXTT3=
EXTT4=
EXTT5=
EXTT6=
EXTT7=
EXTT8=
EXTT9=
EXTT10=
EXTT11=
EXTT12=
EXTT13=
EXTT14=
PLAYORDER=
